<svg width="225" height="42" viewBox="0 0 225 42" fill="none" xmlns="http://www.w3.org/2000/svg">
<g id="&#209;&#128;&#208;&#181;&#208;&#185;&#209;&#130;&#208;&#184;&#208;&#189;&#208;&#179;">
<path id="Path" d="M111.577 2L116.717 15.9613H131L119.35 24.5213L124.537 39.2196L111.577 30.0375L98.6175 39.2196L103.804 24.5213L92.1535 15.9613H106.436L111.577 2Z" stroke="#9EAFC2"/>
<path id="Path_2" d="M156.577 2L161.717 15.9613H176L164.35 24.5213L169.537 39.2196L156.577 30.0375L143.617 39.2196L148.804 24.5213L137.153 15.9613H151.436L156.577 2Z" stroke="#9EAFC2"/>
<path id="Path_3" d="M201.577 2L206.717 15.9613H221L209.35 24.5213L214.537 39.2196L201.577 30.0375L188.617 39.2196L193.804 24.5213L182.153 15.9613H196.436L201.577 2Z" stroke="#9EAFC2"/>
<path id="Shape Copy 4" d="M21.4233 2L16.2829 15.9613H2L13.6498 24.5213L8.46341 39.2196L21.4233 30.0375L34.3825 39.2196L29.1961 24.5213L40.8465 15.9613H26.5637L21.4233 2Z" stroke="#9EAFC2"/>
<path id="Shape Copy 8" d="M66.4233 2L61.2829 15.9613H47L58.6498 24.5213L53.4634 39.2196L66.4233 30.0375L79.3825 39.2196L74.1961 24.5213L85.8466 15.9613H71.5637L66.4233 2Z" stroke="#9EAFC2"/>
</g>
</svg>
